{
  "accessors": [
    {
      "bufferView": 2,
      "componentType": 5126,
      "count": 4297,
      "max": [
        68.61717987060547,
        23.03851890563965,
        37.02422332763672
      ],
      "min": [
        -20.748931884765625,
        -14.663979530334473,
        4.768208980560303
      ],
      "type": "VEC3"
    },
    {
      "bufferView": 2,
      "byteOffset": 51564,
      "componentType": 5126,
      "count": 4297,
      "max": [
        1.0,
        1.0,
        1.0
      ],
      "min": [
        -1.0,
        -1.0,
        -1.0
      ],
      "type": "VEC3"
    },
    {
      "bufferView": 3,
      "componentType": 5126,
      "count": 4297,
      "max": [
        1.0,
        1.0,
        1.0,
        1.0
      ],
      "min": [
        -1.0,
        -1.0,
        -1.0,
        -1.0
      ],
      "type": "VEC4"
    },
    {
      "bufferView": 1,
      "componentType": 5126,
      "count": 4297,
      "max": [
        0.9983443021774292,
        0.9984187483787537
      ],
      "min": [
        0.0013978865463286638,
        0.0014557838439941406
      ],
      "type": "VEC2"
    },
    {
      "bufferView": 1,
      "byteOffset": 34376,
      "componentType": 5126,
      "count": 4297,
      "max": [
        6.104351043701172,
        7.293256759643555
      ],
      "min": [
        -2.610567092895508,
        -1.2864511013031006
      ],
      "type": "VEC2"
    },
    {
      "bufferView": 1,
      "byteOffset": 68752,
      "componentType": 5126,
      "count": 4297,
      "max": [
        6.104351043701172,
        7.293256759643555
      ],
      "min": [
        -2.610567092895508,
        -1.2864511013031006
      ],
      "type": "VEC2"
    },
    {
      "bufferView": 1,
      "byteOffset": 103128,
      "componentType": 5126,
      "count": 4297,
      "max": [
        6.104351043701172,
        7.293256759643555
      ],
      "min": [
        -2.610567092895508,
        -1.2864511013031006
      ],
      "type": "VEC2"
    },
    {
      "bufferView": 0,
      "componentType": 5125,
      "count": 14193,
      "type": "SCALAR"
    },
    {
      "bufferView": 2,
      "byteOffset": 103128,
      "componentType": 5126,
      "count": 6319,
      "max": [
        4.235044956207275,
        4.235044956207275,
        11.98900318145752
      ],
      "min": [
        -43.17219161987305,
        -43.14531326293945,
        -49.120208740234375
      ],
      "type": "VEC3"
    },
    {
      "bufferView": 2,
      "byteOffset": 178956,
      "componentType": 5126,
      "count": 6319,
      "max": [
        1.0,
        1.0,
        1.0
      ],
      "min": [
        -1.0,
        -1.0,
        -1.0
      ],
      "type": "VEC3"
    },
    {
      "bufferView": 3,
      "byteOffset": 68752,
      "componentType": 5126,
      "count": 6319,
      "max": [
        1.0,
        1.0,
        1.0,
        1.0
      ],
      "min": [
        -1.0,
        -1.0,
        -1.0,
        -1.0
      ],
      "type": "VEC4"
    },
    {
      "bufferView": 1,
      "byteOffset": 137504,
      "componentType": 5126,
      "count": 6319,
      "max": [
        0.997916579246521,
        0.9967020750045776
      ],
      "min": [
        0.0013978865463286638,
        0.00145578698720783
      ],
      "type": "VEC2"
    },
    {
      "bufferView": 1,
      "byteOffset": 188056,
      "componentType": 5126,
      "count": 6319,
      "max": [
        2.734736680984497,
        2.043519973754883
      ],
      "min": [
        -1.5538628101348877,
        -1.5810012817382813
      ],
      "type": "VEC2"
    },
    {
      "bufferView": 1,
      "byteOffset": 238608,
      "componentType": 5126,
      "count": 6319,
      "max": [
        2.734736680984497,
        2.043519973754883
      ],
      "min": [
        -1.5538628101348877,
        -1.5810012817382813
      ],
      "type": "VEC2"
    },
    {
      "bufferView": 1,
      "byteOffset": 289160,
      "componentType": 5126,
      "count": 6319,
      "max": [
        2.734736680984497,
        2.043519973754883
      ],
      "min": [
        -1.5538628101348877,
        -1.5810012817382813
      ],
      "type": "VEC2"
    },
    {
      "bufferView": 0,
      "byteOffset": 56772,
      "componentType": 5125,
      "count": 17238,
      "type": "SCALAR"
    },
    {
      "bufferView": 2,
      "byteOffset": 254784,
      "componentType": 5126,
      "count": 6319,
      "max": [
        43.17222213745117,
        4.235047340393066,
        11.988998413085938
      ],
      "min": [
        -4.235044956207275,
        -43.1452751159668,
        -49.120216369628906
      ],
      "type": "VEC3"
    },
    {
      "bufferView": 2,
      "byteOffset": 330612,
      "componentType": 5126,
      "count": 6319,
      "max": [
        1.0,
        1.0,
        1.0
      ],
      "min": [
        -1.0,
        -1.0,
        -1.0
      ],
      "type": "VEC3"
    },
    {
      "bufferView": 3,
      "byteOffset": 169856,
      "componentType": 5126,
      "count": 6319,
      "max": [
        1.0,
        1.0,
        1.0,
        1.0
      ],
      "min": [
        -1.0,
        -1.0,
        -1.0,
        -1.0
      ],
      "type": "VEC4"
    },
    {
      "bufferView": 1,
      "byteOffset": 339712,
      "componentType": 5126,
      "count": 6319,
      "max": [
        0.997916579246521,
        0.9967020750045776
      ],
      "min": [
        0.0013978865463286638,
        0.00145578698720783
      ],
      "type": "VEC2"
    },
    {
      "bufferView": 1,
      "byteOffset": 390264,
      "componentType": 5126,
      "count": 6319,
      "max": [
        2.734736680984497,
        2.043519973754883
      ],
      "min": [
        -1.5538628101348877,
        -1.5810012817382813
      ],
      "type": "VEC2"
    },
    {
      "bufferView": 1,
      "byteOffset": 440816,
      "componentType": 5126,
      "count": 6319,
      "max": [
        2.734736680984497,
        2.043519973754883
      ],
      "min": [
        -1.5538628101348877,
        -1.5810012817382813
      ],
      "type": "VEC2"
    },
    {
      "bufferView": 1,
      "byteOffset": 491368,
      "componentType": 5126,
      "count": 6319,
      "max": [
        2.734736680984497,
        2.043519973754883
      ],
      "min": [
        -1.5538628101348877,
        -1.5810012817382813
      ],
      "type": "VEC2"
    },
    {
      "bufferView": 0,
      "byteOffset": 125724,
      "componentType": 5125,
      "count": 17238,
      "type": "SCALAR"
    },
    {
      "bufferView": 2,
      "byteOffset": 406440,
      "componentType": 5126,
      "count": 6319,
      "max": [
        4.235044956207275,
        43.14530944824219,
        11.988998413085938
      ],
      "min": [
        -43.17218780517578,
        -4.235047340393066,
        -49.120216369628906
      ],
      "type": "VEC3"
    },
    {
      "bufferView": 2,
      "byteOffset": 482268,
      "componentType": 5126,
      "count": 6319,
      "max": [
        1.0,
        1.0,
        1.0
      ],
      "min": [
        -1.0,
        -1.0,
        -1.0
      ],
      "type": "VEC3"
    },
    {
      "bufferView": 3,
      "byteOffset": 270960,
      "componentType": 5126,
      "count": 6319,
      "max": [
        1.0,
        1.0,
        1.0,
        1.0
      ],
      "min": [
        -1.0,
        -1.0,
        -1.0,
        -1.0
      ],
      "type": "VEC4"
    },
    {
      "bufferView": 1,
      "byteOffset": 541920,
      "componentType": 5126,
      "count": 6319,
      "max": [
        0.997916579246521,
        0.9967020750045776
      ],
      "min": [
        0.0013978865463286638,
        0.00145578698720783
      ],
      "type": "VEC2"
    },
    {
      "bufferView": 1,
      "byteOffset": 592472,
      "componentType": 5126,
      "count": 6319,
      "max": [
        2.734736680984497,
        2.043519973754883
      ],
      "min": [
        -1.5538628101348877,
        -1.5810012817382813
      ],
      "type": "VEC2"
    },
    {
      "bufferView": 1,
      "byteOffset": 643024,
      "componentType": 5126,
      "count": 6319,
      "max": [
        2.734736680984497,
        2.043519973754883
      ],
      "min": [
        -1.5538628101348877,
        -1.5810012817382813
      ],
      "type": "VEC2"
    },
    {
      "bufferView": 1,
      "byteOffset": 693576,
      "componentType": 5126,
      "count": 6319,
      "max": [
        2.734736680984497,
        2.043519973754883
      ],
      "min": [
        -1.5538628101348877,
        -1.5810012817382813
      ],
      "type": "VEC2"
    },
    {
      "bufferView": 0,
      "byteOffset": 194676,
      "componentType": 5125,
      "count": 17238,
      "type": "SCALAR"
    },
    {
      "bufferView": 2,
      "byteOffset": 558096,
      "componentType": 5126,
      "count": 6319,
      "max": [
        43.172157287597656,
        43.145301818847656,
        11.989006042480469
      ],
      "min": [
        -4.23504638671875,
        -4.235044479370117,
        -49.120201110839844
      ],
      "type": "VEC3"
    },
    {
      "bufferView": 2,
      "byteOffset": 633924,
      "componentType": 5126,
      "count": 6319,
      "max": [
        1.0,
        1.0,
        1.0
      ],
      "min": [
        -1.0,
        -1.0,
        -1.0
      ],
      "type": "VEC3"
    },
    {
      "bufferView": 3,
      "byteOffset": 372064,
      "componentType": 5126,
      "count": 6319,
      "max": [
        1.0,
        1.0,
        1.0,
        1.0
      ],
      "min": [
        -1.0,
        -1.0,
        -1.0,
        -1.0
      ],
      "type": "VEC4"
    },
    {
      "bufferView": 1,
      "byteOffset": 744128,
      "componentType": 5126,
      "count": 6319,
      "max": [
        0.997916579246521,
        0.9967020750045776
      ],
      "min": [
        0.0013978865463286638,
        0.00145578698720783
      ],
      "type": "VEC2"
    },
    {
      "bufferView": 1,
      "byteOffset": 794680,
      "componentType": 5126,
      "count": 6319,
      "max": [
        2.734736680984497,
        2.043519973754883
      ],
      "min": [
        -1.5538628101348877,
        -1.5810012817382813
      ],
      "type": "VEC2"
    },
    {
      "bufferView": 1,
      "byteOffset": 845232,
      "componentType": 5126,
      "count": 6319,
      "max": [
        2.734736680984497,
        2.043519973754883
      ],
      "min": [
        -1.5538628101348877,
        -1.5810012817382813
      ],
      "type": "VEC2"
    },
    {
      "bufferView": 1,
      "byteOffset": 895784,
      "componentType": 5126,
      "count": 6319,
      "max": [
        2.734736680984497,
        2.043519973754883
      ],
      "min": [
        -1.5538628101348877,
        -1.5810012817382813
      ],
      "type": "VEC2"
    },
    {
      "bufferView": 0,
      "byteOffset": 263628,
      "componentType": 5125,
      "count": 17238,
      "type": "SCALAR"
    },
    {
      "bufferView": 2,
      "byteOffset": 709752,
      "componentType": 5126,
      "count": 64,
      "max": [
        284.3273620605469,
        284.3273620605469,
        0.0
      ],
      "min": [
        -284.3273620605469,
        -284.3273620605469,
        0.0
      ],
      "type": "VEC3"
    },
    {
      "bufferView": 2,
      "byteOffset": 710520,
      "componentType": 5126,
      "count": 64,
      "max": [
        0.0,
        0.0,
        1.0
      ],
      "min": [
        0.0,
        0.0,
        1.0
      ],
      "type": "VEC3"
    },
    {
      "bufferView": 1,
      "byteOffset": 946336,
      "componentType": 5126,
      "count": 64,
      "max": [
        0.9988199472427368,
        0.9988199472427368
      ],
      "min": [
        0.0011800527572631836,
        0.0011800527572631836
      ],
      "type": "VEC2"
    },
    {
      "bufferView": 0,
      "byteOffset": 332580,
      "componentType": 5125,
      "count": 186,
      "type": "SCALAR"
    }
  ],
  "asset": {
    "extras": {
      "author": "3dhdscan (https://sketchfab.com/3dhdscan)",
      "license": "CC-BY-4.0 (http://creativecommons.org/licenses/by/4.0/)",
      "source": "https://sketchfab.com/3d-models/mule-robot-00fe81652dd54674a15cb661c581eb2b",
      "title": "Mule Robot"
    },
    "generator": "Sketchfab-12.67.0",
    "version": "2.0"
  },
  "bufferViews": [
    {
      "buffer": 0,
      "byteLength": 333324,
      "name": "floatBufferViews",
      "target": 34963
    },
    {
      "buffer": 0,
      "byteLength": 946848,
      "byteOffset": 333324,
      "byteStride": 8,
      "name": "floatBufferViews",
      "target": 34962
    },
    {
      "buffer": 0,
      "byteLength": 711288,
      "byteOffset": 1280172,
      "byteStride": 12,
      "name": "floatBufferViews",
      "target": 34962
    },
    {
      "buffer": 0,
      "byteLength": 473168,
      "byteOffset": 1991460,
      "byteStride": 16,
      "name": "floatBufferViews",
      "target": 34962
    }
  ],
  "buffers": [
    {
      "byteLength": 2464628,
      "uri": "scene.bin"
    }
  ],
  "extensionsRequired": [
    "KHR_materials_pbrSpecularGlossiness"
  ],
  "extensionsUsed": [
    "KHR_materials_pbrSpecularGlossiness"
  ],
  "images": [
    {
      "uri": "textures/boot3_diffuse.jpeg"
    },
    {
      "uri": "textures/boot3_specularGlossiness.png"
    },
    {
      "uri": "textures/boot3_emissive.jpeg"
    },
    {
      "uri": "textures/boot3_normal.jpeg"
    },
    {
      "uri": "textures/boot3_occlusion.png"
    },
    {
      "uri": "textures/mateshadows_diffuse.png"
    }
  ],
  "materials": [
    {
      "doubleSided": true,
      "emissiveFactor": [
        1.0,
        1.0,
        1.0
      ],
      "emissiveTexture": {
        "index": 2
      },
      "extensions": {
        "KHR_materials_pbrSpecularGlossiness": {
          "diffuseFactor": [
            1.0,
            1.0,
            1.0,
            1.0
          ],
          "diffuseTexture": {
            "index": 0
          },
          "glossinessFactor": 1.0,
          "specularFactor": [
            1.0,
            1.0,
            1.0
          ],
          "specularGlossinessTexture": {
            "index": 1
          }
        }
      },
      "name": "boot3",
      "normalTexture": {
        "index": 3
      },
      "occlusionTexture": {
        "index": 4
      }
    },
    {
      "alphaMode": "BLEND",
      "doubleSided": true,
      "extensions": {
        "KHR_materials_pbrSpecularGlossiness": {
          "diffuseFactor": [
            0.0,
            0.0,
            0.0,
            1.0
          ],
          "diffuseTexture": {
            "index": 5
          },
          "glossinessFactor": 0.0,
          "specularFactor": [
            0.0,
            0.0,
            0.0
          ]
        }
      },
      "name": "mateshadows"
    }
  ],
  "meshes": [
    {
      "name": "boot3_boot3_0",
      "primitives": [
        {
          "attributes": {
            "NORMAL": 1,
            "POSITION": 0,
            "TANGENT": 2,
            "TEXCOORD_0": 3,
            "TEXCOORD_1": 4,
            "TEXCOORD_2": 5,
            "TEXCOORD_3": 6
          },
          "indices": 7,
          "material": 0,
          "mode": 4
        }
      ]
    },
    {
      "name": "leg_boot3_0",
      "primitives": [
        {
          "attributes": {
            "NORMAL": 9,
            "POSITION": 8,
            "TANGENT": 10,
            "TEXCOORD_0": 11,
            "TEXCOORD_1": 12,
            "TEXCOORD_2": 13,
            "TEXCOORD_3": 14
          },
          "indices": 15,
          "material": 0,
          "mode": 4
        }
      ]
    },
    {
      "name": "leg001_boot3_0",
      "primitives": [
        {
          "attributes": {
            "NORMAL": 17,
            "POSITION": 16,
            "TANGENT": 18,
            "TEXCOORD_0": 19,
            "TEXCOORD_1": 20,
            "TEXCOORD_2": 21,
            "TEXCOORD_3": 22
          },
          "indices": 23,
          "material": 0,
          "mode": 4
        }
      ]
    },
    {
      "name": "leg002_boot3_0",
      "primitives": [
        {
          "attributes": {
            "NORMAL": 25,
            "POSITION": 24,
            "TANGENT": 26,
            "TEXCOORD_0": 27,
            "TEXCOORD_1": 28,
            "TEXCOORD_2": 29,
            "TEXCOORD_3": 30
          },
          "indices": 31,
          "material": 0,
          "mode": 4
        }
      ]
    },
    {
      "name": "leg003_boot3_0",
      "primitives": [
        {
          "attributes": {
            "NORMAL": 33,
            "POSITION": 32,
            "TANGENT": 34,
            "TEXCOORD_0": 35,
            "TEXCOORD_1": 36,
            "TEXCOORD_2": 37,
            "TEXCOORD_3": 38
          },
          "indices": 39,
          "material": 0,
          "mode": 4
        }
      ]
    },
    {
      "name": "boot3_shadow_mateshadows_0",
      "primitives": [
        {
          "attributes": {
            "NORMAL": 41,
            "POSITION": 40,
            "TEXCOORD_0": 42
          },
          "indices": 43,
          "material": 1,
          "mode": 4
        }
      ]
    }
  ],
  "nodes": [
    {
      "children": [
        1
      ],
      "matrix": [
        2.718660354614258,
        0.0,
        0.0,
        0.0,
        0.0,
        6.036638643656684e-16,
        -2.718660354614258,
        0.0,
        0.0,
        2.718660354614258,
        6.036638643656684e-16,
        0.0,
        0.0,
        0.0,
        0.0,
        1.0
      ],
      "name": "Sketchfab_model"
    },
    {
      "children": [
        2
      ],
      "matrix": [
        1.0,
        0.0,
        0.0,
        0.0,
        0.0,
        0.0,
        1.0,
        0.0,
        0.0,
        -1.0,
        0.0,
        0.0,
        0.0,
        0.0,
        0.0,
        1.0
      ],
      "name": "boot3_ske.FBX"
    },
    {
      "children": [
        3,
        5,
        7,
        9,
        11,
        13
      ],
      "name": "RootNode"
    },
    {
      "children": [
        4
      ],
      "matrix": [
        0.009999999776482582,
        0.0,
        0.0,
        0.0,
        0.0,
        2.2204459996194763e-18,
        -0.009999999776482582,
        0.0,
        0.0,
        0.009999999776482582,
        2.2204459996194763e-18,
        0.0,
        0.0,
        0.10700000077486038,
        7.703719777548943e-34,
        1.0
      ],
      "name": "boot3"
    },
    {
      "mesh": 0,
      "name": "boot3_boot3_0"
    },
    {
      "children": [
        6
      ],
      "matrix": [
        0.009999999776482582,
        0.0,
        0.0,
        0.0,
        0.0,
        2.2204459996194763e-18,
        -0.009999999776482582,
        0.0,
        0.0,
        0.009999999776482582,
        2.2204459996194763e-18,
        0.0,
        0.0,
        0.10700000077486038,
        7.703719777548943e-34,
        1.0
      ],
      "name": "leg"
    },
    {
      "mesh": 1,
      "name": "leg_boot3_0"
    },
    {
      "children": [
        8
      ],
      "matrix": [
        0.009999999776482582,
        0.0,
        0.0,
        0.0,
        0.0,
        2.2204459996194763e-18,
        -0.009999999776482582,
        0.0,
        0.0,
        0.009999999776482582,
        2.2204459996194763e-18,
        0.0,
        0.10823451727628708,
        0.10700000077486038,
        7.703719777548943e-34,
        1.0
      ],
      "name": "leg001"
    },
    {
      "mesh": 2,
      "name": "leg001_boot3_0"
    },
    {
      "children": [
        10
      ],
      "matrix": [
        0.009999999776482582,
        0.0,
        0.0,
        0.0,
        0.0,
        2.2204459996194763e-18,
        -0.009999999776482582,
        0.0,
        0.0,
        0.009999999776482582,
        2.2204459996194763e-18,
        0.0,
        0.0,
        0.10700000077486038,
        -0.08842816203832626,
        1.0
      ],
      "name": "leg002"
    },
    {
      "mesh": 3,
      "name": "leg002_boot3_0"
    },
    {
      "children": [
        12
      ],
      "matrix": [
        0.009999999776482582,
        0.0,
        0.0,
        0.0,
        0.0,
        2.2204459996194763e-18,
        -0.009999999776482582,
        0.0,
        0.0,
        0.009999999776482582,
        2.2204459996194763e-18,
        0.0,
        0.10823451727628708,
        0.10700000077486038,
        -0.08842816203832626,
        1.0
      ],
      "name": "leg003"
    },
    {
      "mesh": 4,
      "name": "leg003_boot3_0"
    },
    {
      "children": [
        14
      ],
      "matrix": [
        0.009999999776482582,
        0.0,
        0.0,
        0.0,
        0.0,
        2.2204459996194763e-18,
        -0.009999999776482582,
        0.0,
        0.0,
        0.009999999776482582,
        2.2204459996194763e-18,
        0.0,
        0.05755659565329552,
        -0.38499724864959717,
        -0.03280766308307648,
        1.0
      ],
      "name": "boot3_shadow"
    },
    {
      "mesh": 5,
      "name": "boot3_shadow_mateshadows_0"
    }
  ],
  "samplers": [
    {
      "magFilter": 9729,
      "minFilter": 9987,
      "wrapS": 10497,
      "wrapT": 10497
    }
  ],
  "scene": 0,
  "scenes": [
    {
      "name": "Sketchfab_Scene",
      "nodes": [
        0
      ]
    }
  ],
  "textures": [
    {
      "sampler": 0,
      "source": 0
    },
    {
      "sampler": 0,
      "source": 1
    },
    {
      "sampler": 0,
      "source": 2
    },
    {
      "sampler": 0,
      "source": 3
    },
    {
      "sampler": 0,
      "source": 4
    },
    {
      "sampler": 0,
      "source": 5
    }
  ]
}
